<?xml version="1.0" encoding="UTF-8"?>
<svg xmlns="http://www.w3.org/2000/svg" id="Layer_1" data-name="Layer 1" viewBox="0 0 24 24">
  <path d="m19.907.39l-.354-.354L.037,19.554l.354.354c2.606,2.606,6.072,4.042,9.759,4.042s7.152-1.436,9.758-4.042,4.042-6.072,4.042-9.759-1.436-7.152-4.042-9.759Zm-2.416,16.394l-6.635-6.635.149-.149h9.034c.036,2.428-.813,4.867-2.547,6.784Zm-13.978.707l5.487-5.487v7.974c-2.045-.235-3.949-1.095-5.487-2.487Zm6.487-6.487l.149-.149,6.635,6.635c-1.822,1.651-4.159,2.554-6.635,2.554-.05,0-.099-.001-.149-.002v-9.039Zm2.005-2.005l5.487-5.487c1.425,1.575,2.253,3.503,2.482,5.487h-7.969Zm7.196,10.201c-4.87,4.873-12.727,4.989-17.743.347l1.348-1.348c2.012,1.839,4.6,2.846,7.343,2.846,2.911,0,5.647-1.133,7.705-3.191,4.13-4.13,4.244-10.777.345-15.048l1.348-1.348c4.642,5.014,4.526,12.871-.347,17.743Z"/>
</svg>
